{"title":"Mr Poppers Penguins 2011-AC3-XviD-BRRip-CC","uid":6809874,"size":1583763415,"categoryP":"video","categoryS":"movies","magnet":"?xt=urn:btih:7484041e74a80f8eb3d56ab357df46b1aa472100&amp;dn=Mr+Poppers+Penguins+2011-AC3-XviD-BRRip-CC&amp;tr=udp%3A%2F%2Ftracker.openbittorrent.com%3A80&amp;tr=udp%3A%2F%2Fopen.demonii.com%3A1337&amp;tr=udp%3A%2F%2Ftracker.coppersurfer.tk%3A6969&amp;tr=udp%3A%2F%2Fexodus.desync.com%3A6969","seeders":1,"leechers":0,"uploader":"Caveman44","files":-1,"time":1321009413,"description":"[img]http://img4.imageshack.us/img4/7131/mrpopperspenguins2011.jpg[/img]\n &lt;a href=&quot;\nhttp://www.imdb.com/title/tt1396218/&quot; rel=&quot;nofollow&quot; target=&quot;_NEW&quot;&gt;\nhttp://www.imdb.com/title/tt1396218/&lt;/a&gt;\n\nSource: Mr Poppers Penguins (2011) BluRay 720p x264 DTS-HDC\n\nSample and Screens included.\n\nSubs: English\n\nGeneral\nComplete name                    : Mr Poppers Penguins 2011-AC3-XviD-BRRip-CC.avi\nFormat                           : AVI\nFormat/Info                      : Audio Video Interleave\nFile size                        : 1.46 GiB\nDuration                         : 1h 34mn\nOverall bit rate                 : 2 216 Kbps\nWriting application              : VirtualDubMod 1.5.4.1 (build 2178/release)\nWriting library                  : VirtualDubMod build 2178/release\n\nVideo\nID                               : 0\nFormat                           : MPEG-4 Visual\nFormat profile                   : Simple@L3\nFormat settings, BVOP            : No\nFormat settings, QPel            : No\nFormat settings, GMC             : No warppoints\nFormat settings, Matrix          : Default (H.263)\nCodec ID                         : XVID\nCodec ID/Hint                    : XviD\nDuration                         : 1h 34mn\nBit rate                         : 1 759 Kbps\nWidth                            : 720 pixels\nHeight                           : 400 pixels\nDisplay aspect ratio             : 16:9\nFrame rate                       : 23.976 fps\nResolution                       : 8 bits\nColorimetry                      : 4:2:0\nScan type                        : Progressive\nBits/(Pixel*Frame)               : 0.255\nStream size                      : 1.16 GiB (79%)\nWriting library                  : XviD 1.1.2 (UTC 2006-11-01)\n\nAudio\nID                               : 1\nFormat                           : AC-3\nFormat/Info                      : Audio Coding 3\nCodec ID                         : 2000\nDuration                         : 1h 34mn\nBit rate mode                    : Constant\nBit rate                         : 448 Kbps\nChannel(s)                       : 6 channels\nChannel positions                : Front: L C R, Surround: L R, LFE\nSampling rate                    : 48.0 KHz\nStream size                      : 302 MiB (20%)\nAlignment                        : Split accross interleaves\nInterleave, duration             : 42 ms (1.00 video frame)\nInterleave, preload duration     : 500 ms\n\n[img]http://img641.imageshack.us/img641/1339/mrpopperspenguins2011ac.jpg[/img]","torrent":{"xt":"urn:btih:7484041e74a80f8eb3d56ab357df46b1aa472100","amp;dn":"Mr+Poppers+Penguins+2011-AC3-XviD-BRRip-CC","amp;tr":["udp%3A%2F%2Ftracker.openbittorrent.com%3A80","udp%3A%2F%2Fopen.demonii.com%3A1337","udp%3A%2F%2Ftracker.coppersurfer.tk%3A6969","udp%3A%2F%2Fexodus.desync.com%3A6969"],"infoHash":"7484041e74a80f8eb3d56ab357df46b1aa472100","infoHashBuffer":{"type":"Buffer","data":[116,132,4,30,116,168,15,142,179,213,106,179,87,223,70,177,170,71,33,0]},"announce":[],"urlList":[]}}